<svg width="35" height="35" fill="none" xmlns="http://www.w3.org/2000/svg"><path d="M17.42 2.244c-4.19 0-4.715.018-6.36.093-1.643.075-2.764.335-3.745.717A7.555 7.555 0 004.58 4.833 7.574 7.574 0 002.8 7.566c-.383.981-.643 2.103-.717 3.744-.074 1.646-.093 2.172-.093 6.363 0 4.19.019 4.714.093 6.36.076 1.642.336 2.764.717 3.745a7.56 7.56 0 001.78 2.733 7.554 7.554 0 002.732 1.78c.981.382 2.103.642 3.745.717 1.646.075 2.171.094 6.361.094 4.19 0 4.715-.019 6.36-.094 1.643-.075 2.765-.335 3.747-.716a7.549 7.549 0 002.731-1.781 7.575 7.575 0 001.78-2.733c.38-.981.64-2.103.718-3.745.073-1.646.093-2.17.093-6.36s-.02-4.716-.093-6.362c-.078-1.643-.338-2.764-.717-3.745a7.573 7.573 0 00-1.78-2.733 7.54 7.54 0 00-2.733-1.78c-.984-.38-2.105-.64-3.748-.716-1.646-.075-2.17-.093-6.36-.093h.004zm-1.383 2.78h1.384c4.12 0 4.608.015 6.234.089 1.505.069 2.321.32 2.865.531a4.77 4.77 0 011.773 1.154c.54.54.874 1.054 1.154 1.774.212.544.463 1.36.532 2.864.074 1.627.09 2.116.09 6.233 0 4.118-.016 4.606-.09 6.233-.07 1.504-.32 2.32-.532 2.864a4.77 4.77 0 01-1.154 1.772 4.77 4.77 0 01-1.773 1.154c-.543.212-1.36.463-2.865.532-1.626.074-2.115.09-6.234.09-4.12 0-4.608-.016-6.234-.09-1.505-.07-2.321-.321-2.865-.532a4.778 4.778 0 01-1.775-1.154 4.782 4.782 0 01-1.154-1.773c-.211-.544-.463-1.36-.532-2.864-.073-1.627-.088-2.116-.088-6.236 0-4.12.015-4.606.088-6.232.07-1.505.32-2.321.532-2.865a4.78 4.78 0 011.154-1.774 4.788 4.788 0 011.775-1.155c.543-.212 1.36-.463 2.865-.532 1.423-.064 1.974-.084 4.85-.087v.004zm9.62 2.562a1.851 1.851 0 100 3.704 1.851 1.851 0 000-3.705zM17.42 9.749a7.924 7.924 0 100 15.847 7.924 7.924 0 000-15.847zm0 2.78a5.143 5.143 0 110 10.287 5.143 5.143 0 010-10.286z" fill="#fff"/></svg>