<svg width="35" height="35" fill="none" xmlns="http://www.w3.org/2000/svg"><path fill-rule="evenodd" clip-rule="evenodd" d="M4.696 16.01c7.834-3.401 13.049-5.662 15.667-6.758 7.453-3.111 9.02-3.649 10.027-3.671.224 0 .716.045 1.052.313.269.224.336.515.38.739.046.224.09.694.046 1.052-.403 4.252-2.15 14.57-3.044 19.315-.38 2.015-1.12 2.686-1.836 2.753-1.566.134-2.753-1.03-4.252-2.014-2.373-1.544-3.693-2.507-5.998-4.029-2.664-1.746-.94-2.708.582-4.275.402-.403 7.273-6.67 7.408-7.229.022-.067.022-.336-.135-.47-.156-.134-.38-.09-.56-.045-.245.045-4.005 2.552-11.324 7.498-1.075.739-2.037 1.097-2.91 1.074-.962-.022-2.797-.537-4.185-.984-1.679-.538-3.022-.828-2.91-1.769.067-.492.739-.984 1.992-1.5z" fill="#fff"/></svg>