<svg width="35" height="35" fill="none" xmlns="http://www.w3.org/2000/svg"><path fill-rule="evenodd" clip-rule="evenodd" d="M29.878 7.589a3.837 3.837 0 012.71 2.709c.637 2.388.64 7.374.64 7.374s0 4.986-.64 7.375a3.837 3.837 0 01-2.71 2.709c-2.388.64-11.97.64-11.97.64s-9.582 0-11.97-.64a3.837 3.837 0 01-2.71-2.71c-.64-2.388-.64-7.374-.64-7.374s0-4.986.64-7.374a3.837 3.837 0 012.71-2.71c2.388-.64 11.97-.64 11.97-.64s9.582 0 11.97.64zm-7.077 10.084l-7.96 4.595v-9.19l7.96 4.595z" fill="#fff"/></svg>