<svg width="337" height="113" fill="none" xmlns="http://www.w3.org/2000/svg"><path d="M108.204 8.28l-14.13 8.259-8.544 4.981-14.263 8.335-16.253 9.48-13.13-7.676-14.273-8.324-11.656-6.807L1.825 8.28 15.943 0l25.94 15.153 13.13 7.665 16.253-9.49L94.096 0l14.108 8.28z" fill="#fff"/><path d="M110.042 23.643v67.716l-14.263-8.918V48.55L78.12 58.908v36.014l-12.547 9.82L55.016 113l-10.557-8.258-12.536-9.81V58.909L14.263 48.55v33.89L0 91.36V23.643l46.185 27.095v37.245l8.83 6.906 8.842-6.917V50.738l46.185-27.095zm33.431 24.884V35.145l-4.256 9.413H135.5l-4.256-9.413v13.382h-6.982V23.125h7.62l5.477 11.954 5.509-11.954h7.587v25.402h-6.982zm35.869 0V23.125h11.667c1.243 0 2.387.253 3.431.748a8.515 8.515 0 012.716 2.024 9.45 9.45 0 011.771 2.848 8.573 8.573 0 01.627 3.189c0 .978-.143 1.924-.429 2.826a8.525 8.525 0 01-1.254 2.485 8.931 8.931 0 01-1.968 1.946l5.366 9.336h-7.653l-4.476-7.796h-2.826v7.796h-6.983.011zm6.983-13.877h4.398c.286 0 .561-.11.825-.32.264-.219.484-.527.66-.934.176-.407.264-.89.264-1.462s-.099-1.089-.308-1.485a2.499 2.499 0 00-.748-.913c-.297-.22-.594-.319-.88-.319h-4.222v5.444l.011-.011zm28.294 14.065c-1.935 0-3.684-.363-5.256-1.089a12.649 12.649 0 01-4.058-2.936 13.58 13.58 0 01-2.617-4.146 12.957 12.957 0 01-.913-4.772c0-1.639.319-3.3.968-4.828a13.385 13.385 0 012.705-4.101c1.155-1.21 2.529-2.156 4.113-2.848 1.583-.693 3.321-1.034 5.201-1.034 1.881 0 3.684.363 5.257 1.089a12.508 12.508 0 014.046 2.947 13.79 13.79 0 012.595 4.167c.605 1.54.913 3.123.913 4.74a12.71 12.71 0 01-.946 4.794 13.283 13.283 0 01-2.683 4.102c-1.154 1.21-2.518 2.155-4.09 2.86-1.573.703-3.321 1.055-5.224 1.055h-.011zm-5.762-12.877c0 .858.121 1.693.352 2.485a6.453 6.453 0 001.078 2.144 5.23 5.23 0 001.803 1.507c.726.374 1.595.55 2.595.55 1.001 0 1.87-.187 2.617-.572a4.965 4.965 0 001.804-1.562 7.089 7.089 0 001.034-2.177c.219-.792.34-1.616.34-2.452a8.43 8.43 0 00-.362-2.463 6.726 6.726 0 00-1.078-2.134 5.04 5.04 0 00-1.826-1.484c-.736-.363-1.594-.539-2.573-.539-.978 0-1.869.187-2.595.572-.726.385-1.33.89-1.803 1.517a6.733 6.733 0 00-1.056 2.145 8.8 8.8 0 00-.341 2.452l.011.01zm36.851-4.377c-.814-.473-1.551-.869-2.221-1.166a20.036 20.036 0 00-2.178-.802 7.854 7.854 0 00-2.331-.363c-.594 0-1.089.099-1.462.286-.385.187-.572.506-.572.956 0 .451.187.77.572 1.034.384.264.923.495 1.627.704.704.209 1.54.473 2.518.78 1.573.473 2.936 1.012 4.08 1.628 1.144.616 2.023 1.397 2.65 2.353.627.957.935 2.233.935 3.816 0 1.584-.275 2.782-.825 3.816a6.595 6.595 0 01-2.221 2.463 9.734 9.734 0 01-3.112 1.33 14.88 14.88 0 01-3.508.407c-1.199 0-2.485-.12-3.805-.373a26.097 26.097 0 01-3.849-1.034 19.338 19.338 0 01-3.398-1.562l3.002-6.114a27.408 27.408 0 002.618 1.397c.78.363 1.66.682 2.628.968a10.21 10.21 0 002.914.428c.759 0 1.297-.098 1.594-.285.297-.187.451-.451.451-.77 0-.495-.264-.88-.792-1.155-.527-.275-1.209-.528-2.056-.78-.847-.254-1.781-.54-2.804-.87-1.474-.494-2.694-1.055-3.651-1.693-.957-.627-1.66-1.374-2.111-2.243-.451-.869-.682-1.913-.682-3.145 0-1.87.44-3.43 1.32-4.684.879-1.254 2.045-2.21 3.486-2.86 1.44-.648 3.002-.978 4.673-.978 1.243 0 2.441.154 3.596.45a23.06 23.06 0 013.255 1.09 43.46 43.46 0 012.661 1.22l-3.002 5.762v-.011zm6.694 17.066V23.125h6.983v19.321h11.524v6.081h-18.507zm26.799-25.402h7.797l8.082 25.402h-7.081l-1.309-4.97h-7.181l-1.308 4.97h-7.115l8.126-25.402h-.011zm6.257 15.78l-2.364-8.94-2.364 8.94h4.728zm14.559-15.78l4.97 17.353 4.905-17.353h7.335l-8.765 25.402h-6.938l-8.875-25.402h7.368zM129.419 66.067l4.541 10.381 4.652-10.38h7.587l-8.764 17v8.412h-6.939v-8.478l-8.621-16.924h7.555l-.011-.01zm166.398 0l4.542 10.381 4.651-10.38h7.588l-8.765 17v8.412h-6.938v-8.478l-8.622-16.924h7.555l-.011-.01zM160.022 23.125l4.542 10.381 4.651-10.38h7.588l-8.764 17v8.412H161.1V40.06l-8.621-16.924h7.554l-.011-.01zm-.054 68.52c-2.023 0-3.772-.33-5.223-1-1.452-.671-2.639-1.584-3.563-2.75-.924-1.165-1.595-2.507-2.023-4.024a17.424 17.424 0 01-.649-4.773V66.056h6.972v13.031c0 .836.088 1.627.252 2.397a6.81 6.81 0 00.781 2.035c.363.593.814 1.066 1.375 1.407.561.341 1.242.517 2.056.517.814 0 1.54-.176 2.111-.517a3.817 3.817 0 001.375-1.43 7.252 7.252 0 00.77-2.056c.165-.758.253-1.55.253-2.353v-13.03h6.971v13.041c0 1.76-.23 3.409-.692 4.926-.462 1.529-1.166 2.86-2.09 4.003-.934 1.144-2.111 2.034-3.563 2.661-1.451.627-3.156.946-5.135.946l.022.011zm16.285-.175V66.066h11.667c1.243 0 2.386.253 3.431.748a8.692 8.692 0 012.716 2.023 9.45 9.45 0 011.771 2.849 8.571 8.571 0 01.626 3.189c0 .978-.142 1.924-.428 2.826a8.525 8.525 0 01-1.254 2.485 8.955 8.955 0 01-1.968 1.946l5.366 9.336h-7.654l-4.475-7.796h-2.826v7.796h-6.972zm6.972-13.878h4.398c.286 0 .561-.11.825-.32.264-.208.484-.527.66-.934.176-.407.264-.89.264-1.462s-.099-1.09-.308-1.485a2.499 2.499 0 00-.748-.913c-.297-.22-.594-.319-.88-.319h-4.222v5.444l.011-.011zm17.957 13.878V66.066h6.971V91.47h-6.971zm17.285-25.403l4.542 10.381 4.651-10.38h7.588l-8.764 17v8.412h-6.939v-8.478l-8.621-16.924h7.554l-.011-.01zm29.263 25.578c-1.936 0-3.684-.363-5.257-1.089a12.644 12.644 0 01-4.057-2.936 13.565 13.565 0 01-2.618-4.145 12.977 12.977 0 01-.912-4.773c0-1.638.319-3.299.967-4.827a13.37 13.37 0 012.706-4.102c1.154-1.21 2.529-2.155 4.112-2.848 1.584-.693 3.321-1.034 5.202-1.034 1.88 0 3.683.363 5.256 1.089a12.523 12.523 0 014.047 2.947 13.83 13.83 0 012.595 4.167c.605 1.54.913 3.124.913 4.74a12.71 12.71 0 01-.946 4.794 13.32 13.32 0 01-2.683 4.102c-1.155 1.21-2.519 2.155-4.091 2.86-1.573.703-3.321 1.055-5.223 1.055h-.011zm-5.763-12.877c0 .858.121 1.694.352 2.485a6.557 6.557 0 001.078 2.144 5.24 5.24 0 001.803 1.507c.726.374 1.595.55 2.596.55 1 0 1.869-.187 2.617-.572a4.963 4.963 0 001.803-1.561 7.089 7.089 0 001.034-2.178c.22-.791.341-1.616.341-2.452 0-.836-.121-1.682-.363-2.463a6.726 6.726 0 00-1.078-2.133 5.037 5.037 0 00-1.825-1.485c-.737-.363-1.595-.539-2.573-.539-.979 0-1.87.187-2.596.572-.725.385-1.33.89-1.803 1.517a6.732 6.732 0 00-1.056 2.145 8.8 8.8 0 00-.341 2.452l.011.011zm26.369-12.701l4.971 17.353 4.904-17.353h7.335l-8.764 25.402h-6.939l-8.874-25.402h7.367zm44.207 12.448c0-1.55.297-3.068.88-4.564a12.713 12.713 0 012.562-4.057c1.122-1.221 2.485-2.189 4.102-2.915 1.605-.725 3.43-1.088 5.454-1.088 2.43 0 4.552.506 6.367 1.517 1.814 1.012 3.156 2.354 4.047 4.025l-5.334 3.794c-.308-.836-.759-1.474-1.341-1.936a5.282 5.282 0 00-1.892-.945 7.928 7.928 0 00-1.99-.264c-1.001 0-1.87.198-2.595.594a5.347 5.347 0 00-1.793 1.561 6.795 6.795 0 00-1.033 2.145 8.713 8.713 0 00-.341 2.364c0 .88.132 1.726.396 2.54a7.014 7.014 0 001.143 2.166 5.285 5.285 0 001.848 1.485c.725.363 1.539.539 2.452.539.638 0 1.297-.1 1.968-.308a5.16 5.16 0 001.826-.979c.549-.45.967-1.056 1.253-1.825l5.685 3.397c-.505 1.243-1.33 2.299-2.507 3.19a13.006 13.006 0 01-3.97 2.023 14.675 14.675 0 01-4.398.693c-1.881 0-3.607-.374-5.168-1.122a12.9 12.9 0 01-4.047-3.002 13.8 13.8 0 01-2.628-4.223c-.616-1.561-.935-3.156-.935-4.772l-.011-.033zm9.941-19.75l3.046 2.254 3.046-2.254 3.431 1.507-4.047 4.112h-4.86l-4.047-4.112 3.431-1.507z" fill="#fff"/></svg>