<svg width="185" height="62" fill="none" xmlns="http://www.w3.org/2000/svg"><path d="M59.443 4.543L51.69 9.074l-4.688 2.733-7.825 4.574-8.918 5.2-7.204-4.21-7.831-4.568-6.396-3.735-7.753-4.525L8.822 0l14.233 8.314 7.204 4.206 8.918-5.207L51.702 0l7.741 4.543z" fill="#fff"/><path d="M60.451 12.972v37.154l-7.825-4.893V26.638l-9.69 5.683v19.76l-6.884 5.388L30.26 62l-5.792-4.531-6.879-5.382V32.321L7.9 26.638v18.595L.075 50.126V12.972l25.34 14.867v20.435l4.846 3.789 4.85-3.795v-20.43l25.341-14.866zm18.343 13.654v-7.343l-2.335 5.165H74.42l-2.335-5.165v7.343h-3.831V12.688h4.181l3.005 6.559 3.023-6.559h4.163v13.938h-3.832zm19.682 0V12.688h6.401c.682 0 1.31.14 1.883.41a4.675 4.675 0 011.49 1.11 5.2 5.2 0 01.971 1.564c.23.579.344 1.158.344 1.75 0 .536-.078 1.055-.235 1.55a4.674 4.674 0 01-.688 1.364c-.302.41-.664.766-1.08 1.067l2.945 5.123h-4.2l-2.455-4.278h-1.551v4.278H98.47h.006zm3.831-7.614h2.413c.157 0 .308-.06.453-.175.145-.121.265-.29.362-.513.096-.224.145-.489.145-.803 0-.313-.055-.597-.169-.814a1.383 1.383 0 00-.41-.501.807.807 0 00-.483-.175h-2.317v2.987l.006-.006zm15.524 7.716c-1.062 0-2.021-.199-2.884-.597a6.932 6.932 0 01-2.226-1.61 7.436 7.436 0 01-1.436-2.275 7.109 7.109 0 01-.501-2.619c0-.899.175-1.81.531-2.649a7.347 7.347 0 011.484-2.25 6.915 6.915 0 012.257-1.563c.869-.38 1.822-.567 2.854-.567 1.031 0 2.021.2 2.884.597a6.87 6.87 0 012.22 1.617 7.59 7.59 0 011.424 2.287c.332.845.501 1.713.501 2.6s-.175 1.792-.519 2.631a7.31 7.31 0 01-1.472 2.25 7.037 7.037 0 01-2.245 1.57c-.863.385-1.822.578-2.866.578h-.006zm-3.161-7.065c0 .47.066.93.193 1.364.127.434.326.832.591 1.176.26.344.591.622.99.827.398.205.874.302 1.423.302.55 0 1.026-.103 1.436-.314.405-.211.737-.495.99-.857s.446-.76.567-1.195c.121-.434.187-.887.187-1.345a4.6 4.6 0 00-.199-1.351 3.705 3.705 0 00-.591-1.171 2.773 2.773 0 00-1.002-.814c-.404-.2-.875-.296-1.412-.296-.537 0-1.025.102-1.424.314a2.95 2.95 0 00-.989.832c-.259.35-.453.742-.579 1.177-.127.44-.187.887-.187 1.345l.006.006zm20.218-2.401c-.447-.26-.851-.477-1.219-.64a11.018 11.018 0 00-1.194-.44 4.32 4.32 0 00-1.28-.2c-.325 0-.597.055-.802.158-.211.102-.314.277-.314.524 0 .248.103.423.314.568.211.145.507.271.893.386.386.114.845.26 1.382.428.862.26 1.611.555 2.238.893.627.338 1.11.766 1.454 1.291.344.525.513 1.225.513 2.094 0 .869-.151 1.526-.453 2.093a3.605 3.605 0 01-1.218 1.352c-.513.338-1.08.58-1.708.73a8.188 8.188 0 01-1.924.223c-.658 0-1.364-.066-2.088-.205-.73-.139-1.43-.326-2.112-.567a10.584 10.584 0 01-1.864-.857l1.647-3.354a15.24 15.24 0 001.436.766c.428.199.911.374 1.442.53a5.61 5.61 0 001.599.236c.416 0 .712-.054.875-.157a.483.483 0 00.247-.422c0-.271-.145-.483-.434-.634-.29-.15-.664-.29-1.129-.428a74.383 74.383 0 01-1.538-.477c-.809-.271-1.478-.579-2.003-.929-.525-.344-.911-.754-1.159-1.23-.247-.477-.374-1.05-.374-1.726 0-1.026.242-1.883.724-2.57a4.6 4.6 0 011.913-1.57 6.177 6.177 0 012.564-.536c.682 0 1.34.084 1.973.247.634.163 1.231.362 1.786.598.555.235 1.044.458 1.46.67l-1.647 3.16v-.005zm3.674 9.364V12.688h3.832V23.29h6.323v3.337h-10.155zm14.703-13.938h4.278l4.435 13.938h-3.886l-.718-2.727h-3.94l-.718 2.727h-3.904l4.459-13.938h-.006zm3.433 8.658l-1.297-4.905-1.297 4.905h2.594zm7.989-8.658l2.727 9.521 2.691-9.52h4.024l-4.808 13.937h-3.807l-4.869-13.938h4.042zM71.083 36.25l2.492 5.695 2.552-5.696h4.163l-4.808 9.328v4.616h-3.807V45.54l-4.73-9.286h4.144l-.006-.006zm91.298 0l2.492 5.695 2.552-5.696h4.163l-4.808 9.328v4.616h-3.808V45.54l-4.73-9.286h4.145l-.006-.006zM87.874 12.688l2.492 5.696 2.552-5.696h4.163l-4.808 9.328v4.616h-3.807V21.98l-4.73-9.286h4.144l-.006-.006zm-.03 37.595c-1.11 0-2.069-.18-2.865-.549-.797-.368-1.448-.869-1.955-1.508a6.244 6.244 0 01-1.11-2.209 9.563 9.563 0 01-.356-2.618v-7.156h3.825v7.15c0 .458.048.893.139 1.315.09.416.235.79.428 1.116.2.326.447.586.754.773.308.187.682.283 1.128.283.447 0 .845-.096 1.159-.283.314-.187.567-.453.754-.785a3.98 3.98 0 00.422-1.128c.09-.416.14-.85.14-1.291v-7.15h3.824V43.4c0 .965-.126 1.87-.38 2.703a6.405 6.405 0 01-1.146 2.196 5.074 5.074 0 01-1.955 1.46c-.796.344-1.732.519-2.818.519l.013.006zm8.936-.096V36.249h6.402a4.34 4.34 0 011.882.41 4.783 4.783 0 011.491 1.11c.416.465.742.984.971 1.563a4.71 4.71 0 01.344 1.75c0 .537-.079 1.056-.235 1.55a4.697 4.697 0 01-.688 1.364c-.302.41-.664.767-1.08 1.068l2.944 5.123h-4.199l-2.456-4.278h-1.551v4.278H96.78zm3.825-7.615h2.414a.72.72 0 00.452-.175c.145-.114.266-.29.362-.512a2 2 0 00.145-.803c0-.314-.054-.597-.169-.814a1.363 1.363 0 00-.41-.501.807.807 0 00-.483-.175h-2.317v2.986l.006-.006zm9.853 7.615V36.249h3.825v13.938h-3.825zm9.485-13.937l2.492 5.695 2.552-5.696h4.163l-4.809 9.328v4.616h-3.807V45.54l-4.73-9.286h4.145l-.006-.006zm16.055 14.033c-1.062 0-2.021-.2-2.884-.597a6.93 6.93 0 01-2.226-1.611 7.434 7.434 0 01-1.436-2.275 7.108 7.108 0 01-.501-2.618c0-.9.175-1.81.531-2.65a7.345 7.345 0 011.484-2.25 6.914 6.914 0 012.257-1.562c.869-.38 1.822-.567 2.854-.567 1.031 0 2.021.199 2.884.597a6.868 6.868 0 012.22 1.617 7.59 7.59 0 011.424 2.287c.332.844.501 1.713.501 2.6s-.175 1.792-.519 2.63a7.31 7.31 0 01-1.472 2.251 7.038 7.038 0 01-2.245 1.569c-.863.386-1.822.579-2.866.579h-.006zm-3.161-7.065c0 .47.066.929.193 1.363.133.44.326.833.591 1.177.26.344.591.621.99.826.398.206.874.302 1.423.302.55 0 1.026-.102 1.436-.314.405-.21.737-.494.99-.856s.446-.76.567-1.195c.121-.434.187-.887.187-1.345a4.6 4.6 0 00-.199-1.352 3.704 3.704 0 00-.591-1.17 2.773 2.773 0 00-1.002-.815c-.404-.2-.875-.296-1.412-.296-.537 0-1.025.103-1.424.314a2.95 2.95 0 00-.989.833 3.69 3.69 0 00-.579 1.176c-.127.44-.187.887-.187 1.346l.006.006zm14.467-6.968l2.727 9.52 2.691-9.52h4.025l-4.809 13.937h-3.807l-4.869-13.938h4.042zm24.257 6.829a6.999 6.999 0 011.888-4.73 6.776 6.776 0 012.251-1.6c.88-.397 1.882-.596 2.992-.596 1.334 0 2.498.277 3.493.832.996.555 1.732 1.291 2.221 2.209l-2.926 2.081c-.169-.459-.417-.808-.737-1.062a2.887 2.887 0 00-1.037-.519 4.346 4.346 0 00-1.092-.145c-.549 0-1.026.11-1.424.326a2.951 2.951 0 00-.984.857c-.253.35-.446.748-.567 1.176-.12.429-.187.863-.187 1.298 0 .482.073.947.217 1.393.145.447.356.84.628 1.19.277.349.609.614 1.013.814.399.199.845.295 1.346.295.35 0 .712-.054 1.08-.169.368-.108.7-.29 1.001-.537.302-.247.531-.579.688-1.001l3.12 1.864c-.278.682-.73 1.261-1.376 1.75a7.15 7.15 0 01-2.178 1.11 8.057 8.057 0 01-2.414.38c-1.031 0-1.979-.205-2.835-.615a7.091 7.091 0 01-2.221-1.648 7.595 7.595 0 01-1.442-2.316 7.114 7.114 0 01-.512-2.619l-.006-.018zm5.454-10.836l1.671 1.237 1.671-1.237 1.883.826-2.221 2.257h-2.666l-2.221-2.257 1.883-.826z" fill="#fff"/></svg>